<?xml version="1.0" encoding="utf-8"?>
<svg xmlns="http://www.w3.org/2000/svg"
	xmlns:xlink="http://www.w3.org/1999/xlink"
	width="33px" height="27px">
<path fill="rgb(51,182,83)" fill-rule="evenodd" d="M 30.22 26.5C 30.22 26.5 2.78 26.5 2.78 26.5 1.52 26.5 0.5 25.48 0.5 24.22 0.5 24.22 0.5 2.78 0.5 2.78 0.5 1.52 1.52 0.5 2.78 0.5 2.78 0.5 30.22 0.5 30.22 0.5 31.48 0.5 32.5 1.52 32.5 2.78 32.5 2.78 32.5 24.22 32.5 24.22 32.5 25.48 31.48 26.5 30.22 26.5ZM 31.5 2.78C 31.5 2.07 30.93 1.5 30.22 1.5 30.22 1.5 2.78 1.5 2.78 1.5 2.07 1.5 1.5 2.07 1.5 2.78 1.5 2.78 1.5 4.5 1.5 4.5 1.5 4.5 31.5 4.5 31.5 4.5 31.5 4.5 31.5 2.78 31.5 2.78ZM 31.5 5.5C 31.5 5.5 1.5 5.5 1.5 5.5 1.5 5.5 1.5 24.22 1.5 24.22 1.5 24.93 2.07 25.5 2.78 25.5 2.78 25.5 30.22 25.5 30.22 25.5 30.93 25.5 31.5 24.93 31.5 24.22 31.5 24.22 31.5 5.5 31.5 5.5ZM 3.5 2.5C 3.5 2.5 5.5 2.5 5.5 2.5 5.78 2.5 6 2.72 6 3 6 3.28 5.78 3.5 5.5 3.5 5.5 3.5 3.5 3.5 3.5 3.5 3.22 3.5 3 3.28 3 3 3 2.72 3.22 2.5 3.5 2.5ZM 7.5 2.5C 7.5 2.5 9.5 2.5 9.5 2.5 9.78 2.5 10 2.72 10 3 10 3.28 9.78 3.5 9.5 3.5 9.5 3.5 7.5 3.5 7.5 3.5 7.22 3.5 7 3.28 7 3 7 2.72 7.22 2.5 7.5 2.5ZM 11.5 2.5C 11.5 2.5 13.5 2.5 13.5 2.5 13.78 2.5 14 2.72 14 3 14 3.28 13.78 3.5 13.5 3.5 13.5 3.5 11.5 3.5 11.5 3.5 11.22 3.5 11 3.28 11 3 11 2.72 11.22 2.5 11.5 2.5Z"/>
</svg>