<?xml version="1.0" encoding="utf-8"?>
<svg xmlns="http://www.w3.org/2000/svg"
	xmlns:xlink="http://www.w3.org/1999/xlink"
	width="33px" height="30px">
<path fill="rgb(51,182,83)" fill-rule="evenodd" d="M 30.74 29.5C 30.74 29.5 2.36 29.5 2.36 29.5 1.25 29.5 0.5 28.9 0.5 28 0.5 28 0.5 4.5 0.5 4.5 0.5 3.6 1.27 3 2.36 3 2.36 3 5 3 5 3 5.28 3 5.5 3.22 5.5 3.5 5.5 3.78 5.28 4 5 4 5 4 2.36 4 2.36 4 2.28 4 1.5 3.99 1.5 4.5 1.5 4.5 1.5 9 1.5 9 1.5 9 31.5 9 31.5 9 31.5 9 31.5 4.74 31.5 4.74 31.5 4.32 31.16 4 30.74 4 30.74 4 28 4 28 4 27.72 4 27.5 3.78 27.5 3.5 27.5 3.22 27.72 3 28 3 28 3 30.74 3 30.74 3 31.71 3 32.5 3.77 32.5 4.74 32.5 4.74 32.5 27.74 32.5 27.74 32.5 28.71 31.71 29.5 30.74 29.5ZM 31.5 10C 31.5 10 1.5 10 1.5 10 1.5 10 1.5 28 1.5 28 1.5 28.48 2.22 28.5 2.36 28.5 2.36 28.5 30.74 28.5 30.74 28.5 31.16 28.5 31.5 28.16 31.5 27.74 31.5 27.74 31.5 10 31.5 10ZM 24.5 20.98C 24.5 22.99 23.09 24 21.03 24 18.97 24 17.56 22.99 17.56 20.98 17.56 19.7 18.22 18.75 19.31 18.34 18.65 17.98 18.01 17.36 18.01 16.19 18.01 14.41 19.24 13.61 21.03 13.61 22.82 13.61 24.06 14.41 24.06 16.19 24.06 17.36 23.42 17.98 22.75 18.34 23.85 18.75 24.5 19.7 24.5 20.98ZM 23.08 16.19C 23.08 15.05 22.31 14.5 21.03 14.5 19.76 14.5 18.99 15.05 18.99 16.19 18.99 17.36 19.79 17.94 21.03 17.94 22.28 17.94 23.08 17.36 23.08 16.19ZM 21.03 18.83C 19.48 18.83 18.54 19.51 18.54 20.98 18.54 22.46 19.56 23.11 21.03 23.11 22.5 23.11 23.52 22.46 23.52 20.98 23.52 19.51 22.59 18.83 21.03 18.83ZM 16.14 23.5C 16.14 23.75 15.93 24 15.68 24 15.68 24 9.96 24 9.96 24 9.71 24 9.5 23.79 9.5 23.54 9.5 20.28 15.01 19.92 15.01 16.71 15.01 15.57 14.24 14.71 12.83 14.71 11.6 14.71 11.07 15.33 10.73 16.07 10.64 16.26 10.49 16.36 10.3 16.36 10.05 16.36 9.84 16.15 9.84 15.9 9.84 15.89 9.84 15.82 9.87 15.73 10.27 14.53 11.31 13.8 12.83 13.8 14.82 13.8 16.01 14.93 16.01 16.67 16.01 20.22 10.51 21.5 10.51 23 10.51 23 15.68 23 15.68 23 15.93 23 16.14 23.25 16.14 23.5ZM 26.5 6C 26.22 6 26 5.78 26 5.5 26 5.5 26 1 26 1 26 0.72 26.22 0.5 26.5 0.5 26.78 0.5 27 0.72 27 1 27 1 27 5.5 27 5.5 27 5.78 26.78 6 26.5 6ZM 24.5 4C 24.5 4 24.5 4 24.5 4 24.5 4 9 3.98 9 3.98 8.72 3.98 8.5 3.75 8.5 3.48 8.5 3.2 8.72 2.98 9 2.98 9 2.98 9 2.98 9 2.98 9 2.98 24.5 3 24.5 3 24.78 3 25 3.22 25 3.5 25 3.78 24.78 4 24.5 4ZM 7 6C 6.72 6 6.5 5.78 6.5 5.5 6.5 5.5 6.5 1 6.5 1 6.5 0.72 6.72 0.5 7 0.5 7.28 0.5 7.5 0.72 7.5 1 7.5 1 7.5 5.5 7.5 5.5 7.5 5.78 7.28 6 7 6Z"/>
</svg>