<?xml version="1.0" encoding="utf-8"?>
<svg xmlns="http://www.w3.org/2000/svg"
	xmlns:xlink="http://www.w3.org/1999/xlink"
	width="32px" height="32px">
<path fill="rgb(51,182,83)" fill-rule="evenodd" d="M 10.92 16.93C 10.71 16.75 10.69 16.43 10.88 16.23 11.06 16.02 11.38 16.01 11.58 16.19 11.58 16.19 14.7 18.98 14.7 18.98 14.7 18.98 20.36 11.97 20.36 11.97 20.53 11.76 20.85 11.72 21.06 11.9 21.28 12.07 21.31 12.38 21.14 12.6 21.14 12.6 15.13 20.03 15.13 20.03 15.13 20.03 15.13 20.03 15.13 20.03 15.13 20.04 15.13 20.04 15.13 20.04 15.11 20.06 15.08 20.07 15.06 20.09 14.97 20.16 14.86 20.22 14.75 20.22 14.64 20.22 14.52 20.18 14.43 20.1 14.41 20.09 14.4 20.06 14.38 20.05 14.38 20.05 10.92 16.93 10.92 16.93ZM 4.69 27.31C 1.66 24.29-0 20.27-0 16-0 11.73 1.66 7.71 4.69 4.69 7.71 1.66 11.73 0 16 0 20.27 0 24.29 1.66 27.31 4.69 30.34 7.71 32 11.73 32 16 32 20.27 30.34 24.29 27.31 27.31 24.29 30.34 20.27 32 16 32 11.73 32 7.71 30.34 4.69 27.31ZM 1 16C 1 20.01 2.56 23.77 5.39 26.61 8.23 29.44 11.99 31 16 31 20.01 31 23.77 29.44 26.61 26.61 29.44 23.77 31 20.01 31 16 31 11.99 29.44 8.23 26.61 5.39 23.77 2.56 20.01 1 16 1 11.99 1 8.23 2.56 5.39 5.39 2.56 8.23 1 11.99 1 16Z"/>
</svg>