<?xml version="1.0" encoding="utf-8"?>
<svg xmlns="http://www.w3.org/2000/svg"
	xmlns:xlink="http://www.w3.org/1999/xlink"
	width="32px" height="32px">
<path fill="rgb(51,182,83)" fill-rule="evenodd" d="M 20.25 20.85C 20.25 20.85 15.71 16.21 15.71 16.21 15.71 16.21 15.71 6 15.71 6 15.71 5.72 15.93 5.5 16.21 5.5 16.48 5.5 16.71 5.72 16.71 6 16.71 6 16.71 15.79 16.71 15.79 16.71 15.79 20.96 20.15 20.96 20.15 21.15 20.34 21.05 20.66 20.85 20.85 20.76 20.95 20.63 21 20.5 21 20.37 21 20.35 20.95 20.25 20.85ZM 2 15.5C 1.72 15.5 1.5 15.72 1.5 16 1.5 16.28 1.72 16.5 2 16.5 2 16.5 4 16.5 4 16.5 4.28 16.5 4.5 16.28 4.5 16 4.5 15.72 4.28 15.5 4 15.5 4 15.5 2 15.5 2 15.5ZM 30 16.5C 30.28 16.5 30.5 16.28 30.5 16 30.5 15.72 30.28 15.5 30 15.5 30 15.5 28 15.5 28 15.5 27.72 15.5 27.5 15.72 27.5 16 27.5 16.28 27.72 16.5 28 16.5 28 16.5 30 16.5 30 16.5ZM 15.71 28C 15.71 28 15.71 30 15.71 30 15.71 30.28 15.93 30.5 16.21 30.5 16.48 30.5 16.71 30.28 16.71 30 16.71 30 16.71 28 16.71 28 16.71 27.72 16.48 27.5 16.21 27.5 15.93 27.5 15.71 27.72 15.71 28ZM 16.21 1.5C 15.93 1.5 15.71 1.72 15.71 2 15.71 2 15.71 4 15.71 4 15.71 4.28 15.93 4.5 16.21 4.5 16.48 4.5 16.71 4.28 16.71 4 16.71 4 16.71 2 16.71 2 16.71 1.72 16.48 1.5 16.21 1.5ZM 16 32C 24.82 32 32 24.82 32 16 32 7.18 24.82 0 16 0 15.72 0 15.5 0.22 15.5 0.5 15.5 0.78 15.72 1 16 1 24.27 1 31 7.73 31 16 31 24.27 24.27 31 16 31 7.73 31 1 24.27 1 16 1 12.87 2.06 9.87 3.86 7.32 3.86 7.32 6.21 5.09 6.21 5.09 6.21 5.09 6.21 9.5 6.21 9.5 6.21 9.78 6.43 10 6.71 10 6.98 10 7.21 9.78 7.21 9.5 7.21 9.5 7.21 4 7.21 4 7.21 4 6.5 3.5 6.5 3.5 6.5 3.5 1 3.5 1 3.5 0.72 3.5 0.5 3.72 0.5 4 0.5 4.28 0.72 4.5 1 4.5 1 4.5 5.17 4.5 5.17 4.5 5.17 4.5 3.03 6.65 3.03 6.65 3.03 6.65 2.97 6.71 2.97 6.71 1.03 9.43-0 12.64-0 16-0 24.82 7.18 32 16 32Z"/>
</svg>