<?xml version="1.0" encoding="utf-8"?>
<svg xmlns="http://www.w3.org/2000/svg"
	xmlns:xlink="http://www.w3.org/1999/xlink"
	width="34px" height="34px">
<path fill="rgb(51,182,83)" fill-rule="evenodd" d="M 17.03 29.12C 19.99 29.12 22.39 26.72 22.39 23.76 22.39 20.81 19.99 18.41 17.03 18.41 14.08 18.41 11.68 20.81 11.68 23.76 11.68 26.72 14.08 29.12 17.03 29.12ZM 17.03 19.41C 19.44 19.41 21.39 21.36 21.39 23.76 21.39 26.17 19.44 28.12 17.03 28.12 14.63 28.12 12.68 26.17 12.68 23.76 12.68 21.36 14.63 19.41 17.03 19.41ZM 2.33 13.98C 2.61 13.93 2.79 13.67 2.75 13.4 2.75 13.4 2.33 10.83 2.33 10.83 4.47 10.22 5.89 8.13 5.72 5.88 5.72 5.88 25.29 2.21 25.29 2.21 25.59 3.27 26.24 4.19 27.15 4.82 27.93 5.36 28.83 5.64 29.75 5.64 29.87 5.64 29.98 5.63 30.1 5.62 30.1 5.62 31.79 15.21 31.79 15.21 31.44 14.66 30.82 14.34 30.12 14.34 30.12 14.34 22.34 14.34 22.34 14.34 22.37 14.34 22.39 14.16 22.39 14.08 22.39 11.13 19.99 8.7 17.03 8.7 14.08 8.7 11.68 11.14 11.68 14.1 11.68 14.17 11.69 14.34 11.72 14.34 11.72 14.34 3.95 14.34 3.95 14.34 2.85 14.34 1.97 15.13 1.97 16.23 1.97 16.23 1.97 31.3 1.97 31.3 1.97 32.39 2.85 33.34 3.95 33.34 3.95 33.34 30.12 33.34 30.12 33.34 31.22 33.34 31.97 32.39 31.97 31.3 31.97 31.3 31.97 19.91 31.97 19.91 32.97 19.62 33.37 18.78 33.21 17.9 33.21 17.9 30.97 4.97 30.97 4.97 30.97 4.97 30.97 4.97 30.97 4.97 30.97 4.97 30.97 4.97 30.97 4.97 30.97 4.97 30.47 2.05 30.47 2.05 30.38 1.58 30.13 1.17 29.73 0.9 29.34 0.62 28.86 0.62 28.39 0.71 28.39 0.71 25.58 1.34 25.58 1.34 25.58 1.34 25.58 1.34 25.58 1.34 25.58 1.34 25.57 1.17 25.57 1.17 25.57 1.17 5.08 4.84 5.08 4.84 5.08 4.84 5.08 4.84 5.08 4.84 5.08 4.84 5.08 4.84 5.08 4.84 5.08 4.84 2.21 5.45 2.21 5.45 1.25 5.63 0.62 6.56 0.78 7.52 0.78 7.52 1.76 13.55 1.76 13.55 1.81 13.82 2.06 14.02 2.33 13.98ZM 2.97 19.38C 4.97 19.14 6.86 17.34 7.1 15.34 7.1 15.34 26.75 15.34 26.75 15.34 26.99 17.34 28.97 19.26 30.97 19.39 30.97 19.39 30.97 28.15 30.97 28.15 28.97 28.38 27.2 30.34 26.97 32.34 26.97 32.34 7.1 32.34 7.1 32.34 6.86 30.34 4.97 28.38 2.97 28.15 2.97 28.15 2.97 19.38 2.97 19.38ZM 30.97 16.23C 30.97 16.23 30.97 18.39 30.97 18.39 29.47 18.26 27.99 16.84 27.76 15.34 27.76 15.34 30.12 15.34 30.12 15.34 30.67 15.34 30.97 15.68 30.97 16.23ZM 12.68 14.08C 12.68 11.68 14.63 9.7 17.03 9.7 19.44 9.7 21.39 11.69 21.39 14.1 21.39 14.17 21.41 14.34 21.44 14.34 21.44 14.34 12.63 14.34 12.63 14.34 12.66 14.34 12.68 14.16 12.68 14.08ZM 3.95 15.34C 3.95 15.34 6.09 15.34 6.09 15.34 5.86 16.84 4.47 18.14 2.97 18.37 2.97 18.37 2.97 16.23 2.97 16.23 2.97 15.68 3.4 15.34 3.95 15.34ZM 2.97 31.3C 2.97 31.3 2.97 29.16 2.97 29.16 4.47 29.38 5.86 30.84 6.09 32.34 6.09 32.34 3.95 32.34 3.95 32.34 3.4 32.34 2.97 31.84 2.97 31.3ZM 30.12 32.34C 30.12 32.34 27.98 32.34 27.98 32.34 28.2 30.84 29.47 29.38 30.97 29.16 30.97 29.16 30.97 31.3 30.97 31.3 30.97 31.84 30.67 32.34 30.12 32.34ZM 31.97 18.74C 31.97 18.74 31.97 16.94 31.97 16.94 31.97 16.94 32.17 18.08 32.17 18.08 32.22 18.33 32.47 18.56 31.97 18.74ZM 28.58 1.59C 28.79 1.55 29 1.6 29.17 1.72 29.34 1.84 29.46 2.02 29.5 2.23 29.5 2.23 29.92 4.63 29.92 4.63 29.14 4.66 28.38 4.45 27.72 3.99 27.03 3.52 26.53 2.83 26.28 2.02 26.28 2.02 28.58 1.59 28.58 1.59ZM 2.4 6.5C 2.4 6.5 4.73 6.06 4.73 6.06 4.81 7.77 3.75 9.33 2.17 9.84 2.17 9.84 1.77 7.4 1.77 7.4 1.7 6.97 1.97 6.58 2.4 6.5Z"/>
</svg>