<?xml version="1.0" encoding="utf-8"?>
<svg xmlns="http://www.w3.org/2000/svg"
	xmlns:xlink="http://www.w3.org/1999/xlink"
	width="32px" height="34px">
<path fill="rgb(51,182,83)" fill-rule="evenodd" d="M 17.84 2.08C 17.84 1.21 17.13 0.5 16.26 0.5 16.26 0.5 1.58 0.5 1.58 0.5 0.71 0.5-0 1.21-0 2.08-0 2.08-0 32.42-0 32.42-0 33.29 0.71 34 1.58 34 1.58 34 16.26 34 16.26 34 17.13 34 17.84 33.29 17.84 32.42 17.84 32.42 17.84 2.08 17.84 2.08ZM 16.79 26.67C 16.79 26.67 1.05 26.67 1.05 26.67 1.05 26.67 1.05 5.73 1.05 5.73 1.05 5.73 16.79 5.73 16.79 5.73 16.79 5.73 16.79 26.67 16.79 26.67ZM 16.26 32.95C 16.26 32.95 1.58 32.95 1.58 32.95 1.29 32.95 1.05 32.79 1.05 32.5 1.05 32.5 1.05 27.72 1.05 27.72 1.05 27.72 16.79 27.72 16.79 27.72 16.79 27.72 16.79 32.5 16.79 32.5 16.79 32.79 16.55 32.95 16.26 32.95ZM 1.58 1.55C 1.58 1.55 16.26 1.55 16.26 1.55 16.55 1.55 16.79 1.86 16.79 2.15 16.79 2.15 16.79 4.69 16.79 4.69 16.79 4.69 1.05 4.69 1.05 4.69 1.05 4.69 1.05 2.15 1.05 2.15 1.05 1.86 1.29 1.55 1.58 1.55ZM 6.3 3.12C 6.3 2.83 6.53 2.59 6.82 2.59 6.82 2.59 11.02 2.59 11.02 2.59 11.31 2.59 11.54 2.83 11.54 3.12 11.54 3.41 11.31 3.64 11.02 3.64 11.02 3.64 6.82 3.64 6.82 3.64 6.53 3.64 6.3 3.41 6.3 3.12ZM 8.92 28.84C 8.05 28.84 7.34 29.54 7.34 30.41 7.34 31.27 8.05 31.98 8.92 31.98 9.79 31.98 10.49 31.27 10.49 30.41 10.49 29.54 9.79 28.84 8.92 28.84ZM 8.92 30.93C 8.63 30.93 8.39 30.7 8.39 30.41 8.39 30.12 8.63 29.88 8.92 29.88 9.21 29.88 9.44 30.12 9.44 30.41 9.44 30.7 9.21 30.93 8.92 30.93ZM 30.62 10.45C 30.62 10.45 18.89 10.45 18.89 10.45 18.89 10.45 18.89 11.49 18.89 11.49 18.89 11.49 30.62 11.49 30.62 11.49 30.81 11.49 30.95 11.52 30.95 11.71 30.95 11.71 30.95 12.02 30.95 12.02 30.95 12.02 18.89 12.02 18.89 12.02 18.89 12.02 18.89 13.06 18.89 13.06 18.89 13.06 26.88 13.06 26.88 13.06 26.88 13.06 25.08 16.2 25.08 16.2 25.08 16.2 18.89 16.2 18.89 16.2 18.89 16.2 18.89 17.25 18.89 17.25 18.89 17.25 30.95 17.25 30.95 17.25 30.95 17.25 30.95 23.3 30.95 23.3 30.95 23.49 30.81 23.53 30.62 23.53 30.62 23.53 18.89 23.53 18.89 23.53 18.89 23.53 18.89 24.58 18.89 24.58 18.89 24.58 30.62 24.58 30.62 24.58 31.39 24.58 32 24.07 32 23.3 32 23.3 32 11.71 32 11.71 32 10.95 31.39 10.45 30.62 10.45ZM 28.08 13.06C 28.08 13.06 28.45 13.06 28.45 13.06 28.45 13.06 26.75 16.2 26.75 16.2 26.75 16.2 26.29 16.2 26.29 16.2 26.29 16.2 28.08 13.06 28.08 13.06ZM 27.94 16.2C 27.94 16.2 29.65 13.06 29.65 13.06 29.65 13.06 30.95 13.06 30.95 13.06 30.95 13.06 30.95 16.2 30.95 16.2 30.95 16.2 27.94 16.2 27.94 16.2ZM 19.41 19.87C 19.12 19.87 18.89 19.63 18.89 19.34 18.89 19.05 19.12 18.82 19.41 18.82 19.41 18.82 20.46 18.82 20.46 18.82 20.75 18.82 20.98 19.05 20.98 19.34 20.98 19.63 20.75 19.87 20.46 19.87 20.46 19.87 19.41 19.87 19.41 19.87Z"/>
</svg>