<?xml version="1.0" encoding="utf-8"?>
<svg xmlns="http://www.w3.org/2000/svg"
	xmlns:xlink="http://www.w3.org/1999/xlink"
	width="32px" height="21px">
<path fill="rgb(51,182,83)" fill-rule="evenodd" d="M 18.93 17.32C 18.93 17.32 2.43 17.32 2.43 17.32 2.28 17.32 2.12 17.31 1.97 17.26 1.97 17.26 11.75 8.16 11.75 8.16 11.75 8.16 14.03 9.65 14.03 9.65 14.36 9.87 14.74 9.97 15.12 9.97 15.5 9.97 15.87 9.87 16.2 9.66 16.2 9.66 18.69 8.1 18.69 8.1 18.69 8.1 21.69 10.89 21.69 10.89 21.8 10.99 21.92 11.03 22.05 11.03 22.19 11.03 22.34 10.98 22.44 10.87 22.64 10.65 22.62 10.32 22.41 10.12 22.41 10.12 19.61 7.52 19.61 7.52 19.61 7.52 28.52 1.92 28.52 1.92 28.71 2.12 28.94 2.36 28.94 2.62 28.94 2.62 28.94 3.78 28.94 3.78 28.94 3.82 28.95 3.86 28.96 3.91 28.96 3.92 28.94 3.93 28.94 3.95 28.94 3.95 28.94 9.24 28.94 9.24 28.94 9.53 29.18 9.76 29.47 9.76 29.76 9.76 29.99 9.53 29.99 9.24 29.99 9.24 29.99 3.95 29.99 3.95 29.99 3.9 29.99 3.86 29.98 3.81 29.98 3.8 29.99 3.79 29.99 3.78 29.99 3.78 29.99 2.44 29.99 2.44 29.99 2.44 29.98 2.36 29.98 2.36 29.6 1.23 28.73 0.5 27.74 0.5 27.74 0.5 2.43 0.5 2.43 0.5 2.24 0.5 2.06 0.53 1.88 0.56 1.81 0.57 1.65 0.58 1.59 0.61 0.77 0.84 0 1.45 0 2.33 0 2.33 0 16.49 0 16.49 0 17.63 1.35 18.37 2.43 18.37 2.43 18.37 18.93 18.37 18.93 18.37 19.22 18.37 19.46 18.14 19.46 17.85 19.46 17.56 19.22 17.32 18.93 17.32ZM 15.64 8.77C 15.32 8.98 14.91 8.98 14.6 8.78 14.6 8.78 3.57 1.55 3.57 1.55 3.57 1.55 27.16 1.55 27.16 1.55 27.16 1.55 15.64 8.77 15.64 8.77ZM 1.05 2.33C 1.05 2.03 1.4 1.8 1.74 1.67 1.74 1.67 10.8 7.57 10.8 7.57 10.8 7.57 1.13 16.51 1.13 16.51 1.13 16.5 1.05 16.49 1.05 16.49 1.05 16.49 1.05 2.33 1.05 2.33ZM 26.32 9.64C 23.18 9.64 20.63 12.19 20.63 15.32 20.63 18.45 23.18 21 26.32 21 29.45 21 32 18.45 32 15.32 32 12.19 29.45 9.64 26.32 9.64ZM 26.32 19.95C 23.76 19.95 21.69 17.87 21.69 15.32 21.69 12.77 23.76 10.7 26.32 10.7 28.87 10.7 30.95 12.77 30.95 15.32 30.95 17.87 28.87 19.95 26.32 19.95ZM 28.75 13.38C 28.98 13.56 29.01 13.89 28.83 14.12 28.83 14.12 25.62 18.06 25.62 18.06 25.62 18.06 23.62 15.7 23.62 15.7 23.44 15.48 23.46 15.14 23.69 14.96 23.91 14.77 24.24 14.8 24.43 15.02 24.43 15.02 25.61 16.41 25.61 16.41 25.61 16.41 28.01 13.46 28.01 13.46 28.2 13.23 28.53 13.2 28.75 13.38Z"/>
</svg>