<?xml version="1.0" encoding="utf-8"?>
<svg xmlns="http://www.w3.org/2000/svg"
	xmlns:xlink="http://www.w3.org/1999/xlink"
	width="32px" height="17px">
<path fill="rgb(51,182,83)" fill-rule="evenodd" d="M 16 0.5C 8.39 0.5 3.22 4.46 0.81 6.83 0.29 7.34-0 8.02-0 8.75-0 9.48 0.29 10.16 0.81 10.67 3.22 13.04 8.39 17 16 17 23.61 17 28.78 13.04 31.19 10.67 31.71 10.16 32 9.48 32 8.75 32 8.02 31.71 7.34 31.19 6.83 28.78 4.46 23.61 0.5 16 0.5ZM 30.45 9.94C 28.16 12.19 23.23 15.97 16 15.97 8.77 15.97 3.84 12.19 1.55 9.94 1.23 9.62 1.05 9.2 1.05 8.75 1.05 8.3 1.23 7.88 1.55 7.56 3.84 5.31 8.77 1.53 16 1.53 23.23 1.53 28.16 5.31 30.45 7.56 30.77 7.88 30.95 8.3 30.95 8.75 30.95 9.2 30.77 9.62 30.45 9.94ZM 16 4.63C 13.69 4.63 11.81 6.48 11.81 8.75 11.81 11.02 13.69 12.87 16 12.87 18.31 12.87 20.19 11.02 20.19 8.75 20.19 6.48 18.31 4.63 16 4.63ZM 16 11.84C 14.27 11.84 12.86 10.46 12.86 8.75 12.86 7.04 14.27 5.66 16 5.66 17.73 5.66 19.14 7.04 19.14 8.75 19.14 10.46 17.73 11.84 16 11.84Z"/>
</svg>