<?xml version="1.0" encoding="utf-8"?>
<svg xmlns="http://www.w3.org/2000/svg"
	xmlns:xlink="http://www.w3.org/1999/xlink"
	width="32px" height="32px">
<path fill="rgb(51,182,83)" fill-rule="evenodd" d="M 30 19.5C 30 19.5 28.08 19.5 28.08 19.5 27.65 19.5 27.27 19.78 27.13 20.18 27.13 20.18 26.77 21.28 26.77 21.28 26.65 21.64 26.74 22.03 27.01 22.3 27.01 22.3 28.29 23.59 28.29 23.59 28.67 23.96 28.88 24.47 28.88 25 28.88 25.53 28.67 26.04 28.29 26.41 28.29 26.41 26.42 28.29 26.42 28.29 26.04 28.67 25.53 28.88 25 28.88 24.47 28.88 23.96 28.67 23.58 28.29 23.58 28.29 22.3 27.01 22.3 27.01 22.04 26.74 21.64 26.65 21.28 26.77 21.28 26.77 20.18 27.13 20.18 27.13 19.77 27.27 19.5 27.65 19.5 28.08 19.5 28.08 19.5 30 19.5 30 19.5 31.1 18.6 32 17.5 32 17.5 32 14.5 32 14.5 32 13.4 32 12.5 31.1 12.5 30 12.5 30 12.5 28.08 12.5 28.08 12.5 27.65 12.23 27.27 11.82 27.13 11.82 27.13 10.72 26.77 10.72 26.77 10.37 26.65 9.96 26.74 9.7 27.01 9.7 27.01 8.42 28.29 8.42 28.29 8.04 28.67 7.53 28.88 7 28.88 6.47 28.88 5.96 28.67 5.58 28.29 5.58 28.29 3.71 26.41 3.71 26.41 3.33 26.04 3.12 25.53 3.12 25 3.12 24.47 3.33 23.96 3.71 23.59 3.71 23.59 4.99 22.3 4.99 22.3 5.26 22.03 5.35 21.64 5.23 21.28 5.23 21.28 4.87 20.18 4.87 20.18 4.73 19.78 4.35 19.5 3.92 19.5 3.92 19.5 2 19.5 2 19.5 0.9 19.5 0 18.6 0 17.5 0 17.5 0 14.5 0 14.5 0 13.4 0.9 12.5 2 12.5 2 12.5 3.92 12.5 3.92 12.5 4.35 12.5 4.73 12.22 4.87 11.82 4.87 11.82 5.23 10.72 5.23 10.72 5.35 10.36 5.26 9.97 4.99 9.7 4.99 9.7 3.71 8.41 3.71 8.41 3.33 8.04 3.12 7.53 3.12 7 3.12 6.47 3.33 5.96 3.71 5.59 3.71 5.59 5.58 3.71 5.58 3.71 5.96 3.33 6.47 3.12 7 3.12 7.53 3.12 8.04 3.33 8.42 3.71 8.42 3.71 9.7 4.99 9.7 4.99 9.96 5.26 10.37 5.35 10.72 5.23 10.72 5.23 11.82 4.87 11.82 4.87 12.23 4.73 12.5 4.35 12.5 3.92 12.5 3.92 12.5 2 12.5 2 12.5 0.9 13.4-0 14.5-0 14.5-0 17.5-0 17.5-0 18.6-0 19.5 0.9 19.5 2 19.5 2 19.5 3.92 19.5 3.92 19.5 4.35 19.77 4.73 20.18 4.87 20.18 4.87 21.28 5.23 21.28 5.23 21.64 5.35 22.04 5.26 22.3 4.99 22.3 4.99 23.58 3.71 23.58 3.71 23.96 3.33 24.47 3.12 25 3.12 25.53 3.12 26.04 3.33 26.42 3.71 26.42 3.71 28.29 5.59 28.29 5.59 28.67 5.96 28.88 6.47 28.88 7 28.88 7.53 28.67 8.04 28.29 8.41 28.29 8.41 27.01 9.7 27.01 9.7 26.74 9.97 26.65 10.36 26.77 10.72 26.77 10.72 27.13 11.82 27.13 11.82 27.27 12.22 27.65 12.5 28.08 12.5 28.08 12.5 30 12.5 30 12.5 31.1 12.5 32 13.4 32 14.5 32 14.5 32 17.5 32 17.5 32 18.6 31.1 19.5 30 19.5ZM 31 14.5C 31 13.95 30.55 13.5 30 13.5 30 13.5 28.08 13.5 28.08 13.5 27.22 13.5 26.46 12.95 26.18 12.13 26.18 12.13 25.82 11.04 25.82 11.04 25.58 10.31 25.76 9.53 26.3 8.99 26.3 8.99 27.58 7.71 27.58 7.71 27.77 7.52 27.88 7.27 27.88 7 27.88 6.73 27.77 6.48 27.58 6.29 27.58 6.29 25.71 4.41 25.71 4.41 25.33 4.04 24.67 4.04 24.29 4.41 24.29 4.41 23.01 5.7 23.01 5.7 22.48 6.23 21.67 6.42 20.96 6.18 20.96 6.18 19.87 5.82 19.87 5.82 19.05 5.54 18.5 4.78 18.5 3.92 18.5 3.92 18.5 2 18.5 2 18.5 1.45 18.05 1 17.5 1 17.5 1 14.5 1 14.5 1 13.95 1 13.5 1.45 13.5 2 13.5 2 13.5 3.92 13.5 3.92 13.5 4.78 12.95 5.54 12.13 5.82 12.13 5.82 11.04 6.18 11.04 6.18 10.33 6.42 9.52 6.23 8.99 5.7 8.99 5.7 7.71 4.41 7.71 4.41 7.33 4.04 6.67 4.04 6.29 4.41 6.29 4.41 4.42 6.29 4.42 6.29 4.23 6.48 4.12 6.73 4.12 7 4.12 7.27 4.23 7.52 4.42 7.71 4.42 7.71 5.7 8.99 5.7 8.99 6.24 9.53 6.42 10.31 6.18 11.04 6.18 11.04 5.82 12.13 5.82 12.13 5.54 12.95 4.78 13.5 3.92 13.5 3.92 13.5 2 13.5 2 13.5 1.45 13.5 1 13.95 1 14.5 1 14.5 1 17.5 1 17.5 1 18.05 1.45 18.5 2 18.5 2 18.5 3.92 18.5 3.92 18.5 4.78 18.5 5.54 19.05 5.82 19.87 5.82 19.87 6.18 20.96 6.18 20.96 6.42 21.69 6.24 22.47 5.7 23.01 5.7 23.01 4.42 24.29 4.42 24.29 4.23 24.48 4.12 24.73 4.12 25 4.12 25.27 4.23 25.52 4.42 25.71 4.42 25.71 6.29 27.59 6.29 27.59 6.67 27.96 7.33 27.96 7.71 27.59 7.71 27.59 8.99 26.3 8.99 26.3 9.37 25.92 9.87 25.72 10.41 25.72 10.62 25.72 10.83 25.75 11.04 25.82 11.04 25.82 12.13 26.18 12.13 26.18 12.95 26.46 13.5 27.22 13.5 28.08 13.5 28.08 13.5 30 13.5 30 13.5 30.55 13.95 31 14.5 31 14.5 31 17.5 31 17.5 31 18.05 31 18.5 30.55 18.5 30 18.5 30 18.5 28.08 18.5 28.08 18.5 27.22 19.05 26.46 19.87 26.18 19.87 26.18 20.96 25.82 20.96 25.82 21.67 25.58 22.48 25.77 23.01 26.3 23.01 26.3 24.29 27.59 24.29 27.59 24.67 27.96 25.33 27.96 25.71 27.59 25.71 27.59 27.58 25.71 27.58 25.71 27.77 25.52 27.88 25.27 27.88 25 27.88 24.73 27.77 24.48 27.58 24.29 27.58 24.29 26.3 23.01 26.3 23.01 25.76 22.47 25.58 21.69 25.82 20.96 25.82 20.96 26.18 19.87 26.18 19.87 26.46 19.05 27.22 18.5 28.08 18.5 28.08 18.5 30 18.5 30 18.5 30.55 18.5 31 18.05 31 17.5 31 17.5 31 14.5 31 14.5ZM 16.79 19.41C 16.53 19.47 16.26 19.5 16 19.5 16 19.5 16 19.5 16 19.5 14.93 19.5 13.94 19.02 13.27 18.19 12.6 17.36 12.35 16.27 12.59 15.21 12.88 13.9 13.9 12.88 15.21 12.59 16.54 12.29 17.9 12.77 18.73 13.81 19.4 14.64 19.65 15.73 19.41 16.79 19.12 18.1 18.1 19.12 16.79 19.41ZM 17.95 14.44C 17.47 13.84 16.76 13.5 16 13.5 15.81 13.5 15.61 13.52 15.42 13.56 14.51 13.77 13.77 14.51 13.56 15.42 13.39 16.19 13.57 16.97 14.05 17.56 14.53 18.16 15.24 18.5 16 18.5 16 18.5 16 18.5 16 18.5 16.19 18.5 16.39 18.48 16.58 18.44 17.49 18.23 18.23 17.49 18.44 16.58 18.61 15.81 18.43 15.03 17.95 14.44Z"/>
</svg>