<?xml version="1.0" encoding="utf-8"?>
<svg xmlns="http://www.w3.org/2000/svg"
	xmlns:xlink="http://www.w3.org/1999/xlink"
	width="32px" height="32px">
<path fill="rgb(51,182,83)" fill-rule="evenodd" d="M 10.02 8.01C 8.77 8.01 7.77 9.02 7.77 10.26 7.77 11.5 8.77 12.51 10.02 12.51 11.26 12.51 12.27 11.5 12.27 10.26 12.27 9.02 11.26 8.01 10.02 8.01ZM 10.77 10.26C 10.77 10.67 10.43 11.01 10.02 11.01 9.6 11.01 9.27 10.67 9.27 10.26 9.27 9.85 9.6 9.51 10.02 9.51 10.43 9.51 10.77 9.85 10.77 10.26ZM 10.02 14.01C 8.77 14.01 7.77 15.02 7.77 16.26 7.77 17.5 8.77 18.51 10.02 18.51 11.26 18.51 12.27 17.5 12.27 16.26 12.27 15.02 11.26 14.01 10.02 14.01ZM 10.77 16.26C 10.77 16.67 10.43 17.01 10.02 17.01 9.6 17.01 9.27 16.67 9.27 16.26 9.27 15.85 9.6 15.51 10.02 15.51 10.43 15.51 10.77 15.85 10.77 16.26ZM 10.02 20.01C 8.77 20.01 7.77 21.02 7.77 22.26 7.77 23.5 8.77 24.51 10.02 24.51 11.26 24.51 12.27 23.5 12.27 22.26 12.27 21.02 11.26 20.01 10.02 20.01ZM 10.77 22.26C 10.77 22.67 10.43 23.01 10.02 23.01 9.6 23.01 9.27 22.67 9.27 22.26 9.27 21.85 9.6 21.51 10.02 21.51 10.43 21.51 10.77 21.85 10.77 22.26ZM 24.27 16.25C 24.27 16.66 23.93 17 23.52 17 23.52 17 14.52 17 14.52 17 14.1 17 13.77 16.66 13.77 16.25 13.77 15.84 14.1 15.5 14.52 15.5 14.52 15.5 23.52 15.5 23.52 15.5 23.93 15.5 24.27 15.84 24.27 16.25ZM 24.27 10.25C 24.27 10.66 23.93 11 23.52 11 23.52 11 14.52 11 14.52 11 14.1 11 13.77 10.66 13.77 10.25 13.77 9.84 14.1 9.5 14.52 9.5 14.52 9.5 23.52 9.5 23.52 9.5 23.93 9.5 24.27 9.84 24.27 10.25ZM 24.27 22.25C 24.27 22.66 23.93 23 23.52 23 23.52 23 14.52 23 14.52 23 14.1 23 13.77 22.66 13.77 22.25 13.77 21.84 14.1 21.5 14.52 21.5 14.52 21.5 23.52 21.5 23.52 21.5 23.93 21.5 24.27 21.84 24.27 22.25ZM 32 2.2C 32 0.99 31.01 0 29.8 0 29.8 0 2.2 0 2.2 0 0.99 0-0 0.99-0 2.2-0 2.2-0 29.8-0 29.8-0 31.01 0.99 32 2.2 32 2.2 32 29.8 32 29.8 32 31.01 32 32 31.01 32 29.8 32 29.8 32 2.2 32 2.2ZM 31 29.8C 31 30.46 30.46 31 29.8 31 29.8 31 2.2 31 2.2 31 1.54 31 1 30.46 1 29.8 1 29.8 1 2.2 1 2.2 1 1.54 1.54 1 2.2 1 2.2 1 29.8 1 29.8 1 30.46 1 31 1.54 31 2.2 31 2.2 31 29.8 31 29.8Z"/>
</svg>