<?xml version="1.0" encoding="utf-8"?>
<svg xmlns="http://www.w3.org/2000/svg"
	xmlns:xlink="http://www.w3.org/1999/xlink"
	width="34px" height="34px">
<path fill="rgb(51,182,83)" fill-rule="evenodd" d="M 33.03 29.32C 33.03 29.32 30.96 33.5 30.96 33.5 30.96 33.5 28.67 29.74 28.67 29.74 28.25 29.04 28.03 28.24 28.03 27.43 28.03 27.43 28.03 3.16 28.03 3.16 28.03 1.69 29.22 0.5 30.68 0.5 30.68 0.5 33.5 0.5 33.5 0.5 33.5 0.5 33.5 27.34 33.5 27.34 33.5 28.03 33.34 28.71 33.03 29.32ZM 32.41 1.6C 32.41 1.6 30.68 1.6 30.68 1.6 29.82 1.6 29.12 2.3 29.12 3.16 29.12 3.16 29.12 5.99 29.12 5.99 29.12 5.99 32.41 5.99 32.41 5.99 32.41 5.99 32.41 1.6 32.41 1.6ZM 32.41 7.09C 32.41 7.09 29.12 7.09 29.12 7.09 29.12 7.09 29.12 27.43 29.12 27.43 29.12 28.04 29.29 28.64 29.61 29.16 29.61 29.16 30.86 31.23 30.86 31.23 30.86 31.23 32.06 28.83 32.06 28.83 32.28 28.37 32.41 27.86 32.41 27.34 32.41 27.34 32.41 7.09 32.41 7.09ZM 23.22 32.92C 23.22 32.92 5.05 32.92 5.05 32.92 3.82 32.92 2.86 31.92 2.86 30.69 2.86 30.69 2.86 30.17 2.86 30.17 2.86 30.17 1.22 30.17 1.22 30.17 0.92 30.17 0.67 29.92 0.67 29.62 0.67 29.32 0.92 29.07 1.22 29.07 1.22 29.07 2.86 29.07 2.86 29.07 2.86 29.07 2.86 25.77 2.86 25.77 2.86 25.77 1.22 25.77 1.22 25.77 0.92 25.77 0.67 25.53 0.67 25.22 0.67 24.92 0.92 24.67 1.22 24.67 1.22 24.67 2.86 24.67 2.86 24.67 2.86 24.67 2.86 21.38 2.86 21.38 2.86 21.38 1.22 21.38 1.22 21.38 0.92 21.38 0.67 21.13 0.67 20.83 0.67 20.53 0.92 20.28 1.22 20.28 1.22 20.28 2.86 20.28 2.86 20.28 2.86 20.28 2.86 16.98 2.86 16.98 2.86 16.98 1.22 16.98 1.22 16.98 0.92 16.98 0.67 16.74 0.67 16.43 0.67 16.13 0.92 15.88 1.22 15.88 1.22 15.88 2.86 15.88 2.86 15.88 2.86 15.88 2.86 13.14 2.86 13.14 2.86 13.14 1.22 13.14 1.22 13.14 0.92 13.14 0.67 12.89 0.67 12.59 0.67 12.28 0.92 12.04 1.22 12.04 1.22 12.04 2.86 12.04 2.86 12.04 2.86 12.04 2.86 8.74 2.86 8.74 2.86 8.74 1.22 8.74 1.22 8.74 0.92 8.74 0.67 8.49 0.67 8.19 0.67 7.89 0.92 7.64 1.22 7.64 1.22 7.64 2.86 7.64 2.86 7.64 2.86 7.64 2.86 4.35 2.86 4.35 2.86 4.35 1.05 4.35 1.05 4.35 0.74 4.35 0.5 4.1 0.5 3.8 0.5 3.49 0.74 3.25 1.05 3.25 1.05 3.25 2.86 3.25 2.86 3.25 2.86 3.25 2.86 2.71 2.86 2.71 2.86 1.48 3.82 0.5 5.05 0.5 5.05 0.5 23.22 0.5 23.22 0.5 24.4 0.5 25.29 1.45 25.29 2.73 25.29 2.73 25.29 30.68 25.29 30.68 25.29 31.96 24.4 32.92 23.22 32.92ZM 5.05 1.6C 4.42 1.6 3.95 2.09 3.95 2.71 3.95 2.71 3.95 3.25 3.95 3.25 3.95 3.25 5.35 3.25 5.35 3.25 5.66 3.25 5.9 3.49 5.9 3.8 5.9 4.1 5.66 4.35 5.35 4.35 5.35 4.35 3.95 4.35 3.95 4.35 3.95 4.35 3.95 7.64 3.95 7.64 3.95 7.64 5.52 7.64 5.52 7.64 5.83 7.64 6.07 7.89 6.07 8.19 6.07 8.49 5.83 8.74 5.52 8.74 5.52 8.74 3.95 8.74 3.95 8.74 3.95 8.74 3.95 12.04 3.95 12.04 3.95 12.04 5.52 12.04 5.52 12.04 5.83 12.04 6.07 12.28 6.07 12.59 6.07 12.89 5.83 13.14 5.52 13.14 5.52 13.14 3.95 13.14 3.95 13.14 3.95 13.14 3.95 15.88 3.95 15.88 3.95 15.88 5.52 15.88 5.52 15.88 5.83 15.88 6.07 16.13 6.07 16.43 6.07 16.74 5.83 16.98 5.52 16.98 5.52 16.98 3.95 16.98 3.95 16.98 3.95 16.98 3.95 20.28 3.95 20.28 3.95 20.28 5.52 20.28 5.52 20.28 5.83 20.28 6.07 20.53 6.07 20.83 6.07 21.13 5.83 21.38 5.52 21.38 5.52 21.38 3.95 21.38 3.95 21.38 3.95 21.38 3.95 24.67 3.95 24.67 3.95 24.67 5.52 24.67 5.52 24.67 5.83 24.67 6.07 24.92 6.07 25.22 6.07 25.53 5.83 25.77 5.52 25.77 5.52 25.77 3.95 25.77 3.95 25.77 3.95 25.77 3.95 29.07 3.95 29.07 3.95 29.07 5.52 29.07 5.52 29.07 5.83 29.07 6.07 29.32 6.07 29.62 6.07 29.92 5.83 30.17 5.52 30.17 5.52 30.17 3.95 30.17 3.95 30.17 3.95 30.17 3.95 30.69 3.95 30.69 3.95 31.32 4.42 31.82 5.05 31.82 5.05 31.82 18.73 31.82 18.73 31.82 18.73 31.82 18.73 1.63 18.73 1.63 18.73 1.61 18.75 1.6 18.75 1.6 18.75 1.6 5.05 1.6 5.05 1.6ZM 24.2 2.73C 24.2 2.18 23.89 1.6 23.22 1.6 23.22 1.6 19.83 1.6 19.83 1.6 19.83 1.6 19.82 1.61 19.82 1.63 19.82 1.63 19.82 31.82 19.82 31.82 19.82 31.82 23.22 31.82 23.22 31.82 23.89 31.82 24.2 31.23 24.2 30.68 24.2 30.68 24.2 2.73 24.2 2.73Z"/>
</svg>